<svg width="512" height="512" viewBox="0 0 100 100" xmlns="http://www.w3.org/2000/svg">
  <!-- Rounded white background (Squircle) -->
  <rect x="0" y="0" width="100" height="100" rx="22" fill="white"/>
  
  <!-- Stylized E in Green #007F3F -->
  <path d="M 12,25 C 12,15 25,15 25,15 L 45,15 L 45,28 L 22,28 C 22,28 22,28 22,32 L 22,42 L 45,42 L 45,55 L 22,55 L 22,68 L 45,68 L 45,85 L 12,85 Z" fill="#007F3F"/>
  
  <!-- Stylized K in Yellow #F4B41A -->
  <path d="M 50,15 L 64,15 L 64,42 L 85,15 L 100,15 L 75,48 L 100,85 L 85,85 L 64,55 L 64,85 L 50,85 Z" fill="#F4B41A"/>
</svg>
